
<!-- Generator: visioncortex VTracer 0.6.4 -->
<svg version="1.1" xmlns="http://www.w3.org/2000/svg" viewBox="0 0 1254 1254" preserveAspectRatio="xMidYMid meet">
<path d="M0 0 C43.23 0 86.46 0 131 0 C131 65.67 131 131.34 131 199 C136.61 195.37 142.22 191.74 148 188 C176.301 171.793 208.341 162.166 241 161 C241.668 160.973 242.337 160.946 243.025 160.917 C264.656 160.135 286.206 163.097 307 169 C307.746 169.21 308.492 169.419 309.26 169.635 C334.736 176.991 359.757 189.658 380.238 206.554 C381.626 207.693 383.028 208.817 384.434 209.934 C391.296 215.434 397.664 221.277 403.875 227.5 C404.589 228.214 404.589 228.214 405.317 228.942 C413.719 237.382 421.193 246.223 428 256 C428.431 256.603 428.863 257.205 429.307 257.826 C451.577 288.975 464.773 325.203 470 363 C470.117 363.84 470.234 364.679 470.355 365.544 C478.194 424.318 462.503 487.201 426.75 534.688 C424.858 537.146 422.936 539.577 421 542 C419.778 543.557 419.778 543.557 418.531 545.145 C414.516 550.171 410.319 554.826 405.699 559.301 C403.863 561.067 403.863 561.067 402 563.562 C399.047 567.162 395.546 569.996 392 573 C391.025 573.851 390.051 574.702 389.047 575.578 C355.183 604.995 311.622 624.191 267 629 C266.033 629.111 265.066 629.222 264.07 629.336 C216.898 633.869 171.806 622.576 131.95 597.223 C129.654 595.783 127.325 594.395 125 593 C125 602.9 125 612.8 125 623 C83.75 623 42.5 623 0 623 C0 417.41 0 211.82 0 0 Z M152.434 320.227 C143.379 330.546 136.66 341.524 131 354 C130.387 355.268 130.387 355.268 129.762 356.562 C118.737 381.081 119.934 412.188 129.122 437.007 C138.826 461.886 156.628 483.016 180 496 C181.671 496.928 181.671 496.928 183.375 497.875 C207.936 510.825 238.192 514.737 264.981 506.637 C265.647 506.427 266.314 506.217 267 506 C268.013 505.687 268.013 505.687 269.046 505.367 C284.271 500.51 298.222 492.846 310 482 C310.522 481.52 311.044 481.041 311.582 480.547 C326.189 466.972 336.955 450.724 343.375 431.812 C343.614 431.113 343.852 430.413 344.098 429.693 C347.39 419.403 348.369 409.073 348.312 398.312 C348.304 396.61 348.304 396.61 348.295 394.874 C348.074 379.452 345.117 366.127 339 352 C338.548 350.952 338.095 349.904 337.629 348.824 C325.753 323.423 303.141 302.071 276.93 292.02 C262.95 287.155 250.278 284.605 235.438 284.625 C234.779 284.625 234.121 284.625 233.443 284.626 C202.143 284.726 174.036 297.737 152.434 320.227 Z " fill="#FD7400" transform="translate(161,296)"/>
<path d="M0 0 C0.992 0.516 0.992 0.516 2.004 1.042 C12.812 6.704 22.435 13.447 32 21 C32.995 21.781 33.99 22.562 35.016 23.367 C37.359 25.227 39.682 27.108 42 29 C42.639 29.504 43.279 30.008 43.938 30.527 C45.33 31.639 46.672 32.812 48 34 C48 34.66 48 35.32 48 36 C48.574 36.249 49.147 36.498 49.738 36.754 C58.044 41.33 64.232 50.69 70 58 C70.793 58.976 71.586 59.952 72.402 60.957 C110.341 108.605 127.521 172.966 120.746 233.266 C116.476 267.592 106.624 301.579 88 331 C87.454 331.875 87.454 331.875 86.897 332.768 C54.091 385.07 1.366 421.764 -58.641 435.609 C-64.729 436.941 -70.842 438.044 -77 439 C-77.759 439.119 -78.519 439.237 -79.301 439.359 C-143.162 448.74 -208.941 432.527 -260.719 394.281 C-309.554 357.337 -341.137 301.432 -350 241 C-358.522 177.19 -341.413 112.265 -302.722 60.866 C-296.69 53.097 -289.885 46.012 -283 39 C-282.398 38.384 -281.795 37.767 -281.175 37.133 C-276.1 31.99 -270.657 27.491 -265 23 C-264.022 22.205 -263.043 21.409 -262.035 20.59 C-188.796 -37.688 -81.596 -42.982 0 0 Z M-190 124 C-190.977 124.883 -191.954 125.766 -192.961 126.676 C-209.791 142.41 -221.389 163.453 -226 186 C-226.223 187.027 -226.446 188.055 -226.676 189.113 C-231.919 217.185 -225.27 246.177 -210.023 270.102 C-205.499 276.5 -200.365 282.3 -195 288 C-194.349 288.739 -193.698 289.477 -193.027 290.238 C-176.841 307.797 -149.876 319.842 -126.094 321.161 C-105.846 321.481 -105.846 321.481 -86 318 C-84.169 317.507 -84.169 317.507 -82.301 317.004 C-52.234 307.924 -28.969 286.893 -14.188 259.562 C-0.804 233.752 1.683 203.416 -6.697 175.581 C-16.4 145.666 -37.18 121.463 -65.026 106.943 C-105.726 86.763 -156.35 93.501 -190 124 Z " fill="#00C8EB" transform="translate(1010,485)"/>
<path d="M0 0 C6.93 0 13.86 0 21 0 C21 0.33 21 0.66 21 1 C10.605 2.485 10.605 2.485 0 4 C0 2.68 0 1.36 0 0 Z " fill="#E8EAEA" transform="translate(106,0)"/>
</svg>